<svg version="1.1" id="Layer_1" xmlns="http://www.w3.org/2000/svg" xmlns:xlink="http://www.w3.org/1999/xlink" x="0px" y="0px"
	 width="100%" viewBox="0 0 496 496" enable-background="new 0 0 496 496" xml:space="preserve">
<path fill="#000000" opacity="1.000000" stroke="none" 
	d="
M378.811279,331.722595 
	C361.496613,354.366211 338.324188,361.778900 311.160095,359.520935 
	C292.766083,357.991974 276.333740,352.117981 263.871246,337.870605 
	C246.508453,318.021057 244.226837,286.671570 258.259247,264.224487 
	C258.697632,263.523224 259.112854,262.755981 259.716522,262.219391 
	C261.458649,260.670898 278.822601,260.395081 280.793365,261.789642 
	C282.216278,262.796539 282.101624,264.343079 282.370544,265.808350 
	C285.035645,280.329590 286.044708,295.176270 290.756531,309.295990 
	C295.888092,324.673615 304.378235,337.383484 319.267914,345.015717 
	C322.569427,346.708038 325.750061,346.902771 329.368713,346.005981 
	C367.290680,336.607941 377.760162,296.077393 361.433228,268.887115 
	C360.166870,266.778168 358.937592,264.646973 357.453491,262.121826 
	C365.314819,259.549347 373.336609,262.994537 380.394501,259.313324 
	C391.117676,271.658905 397.003143,308.365479 378.811279,331.722595 
M258.295074,285.712494 
	C254.171616,316.180542 275.459595,346.849304 300.599182,346.079010 
	C288.821075,337.630310 280.775177,326.667511 275.496246,313.540588 
	C271.477112,303.546326 270.177368,293.003784 268.633270,282.476837 
	C267.791077,276.735046 267.607727,270.836395 265.494080,264.351685 
	C261.360718,271.315918 259.601776,277.989288 258.295074,285.712494 
z"/>
<path fill="#000000" opacity="1.000000" stroke="none" 
	d="
M288.757690,205.271118 
	C271.766418,191.011963 268.159363,172.969147 274.173584,153.069641 
	C279.917877,134.063232 292.819977,121.971123 312.978912,118.531326 
	C324.837646,116.507843 336.538025,117.843475 348.172211,120.065781 
	C351.677734,120.735382 355.136505,120.666069 358.608887,120.611176 
	C361.626862,120.563461 362.879700,121.862907 362.911102,124.717674 
	C363.021027,134.715851 363.154205,144.713806 363.242126,154.712143 
	C363.253723,156.030609 363.278137,157.646835 361.554810,157.888977 
	C359.587860,158.165314 358.894836,156.606567 358.857056,155.037613 
	C358.482178,139.466614 343.960907,129.916870 331.652466,128.227234 
	C310.710022,125.352356 298.352417,135.352417 293.352905,146.144165 
	C286.303040,161.361664 288.463745,177.587753 303.119843,189.007599 
	C322.833679,204.368378 342.270142,220.085434 361.794739,235.688217 
	C363.151886,236.772766 365.025238,237.555664 365.157562,239.971527 
	C361.367096,241.725647 357.297424,240.396729 353.435669,240.951874 
	C339.835724,242.906921 328.727722,238.847717 318.650818,229.249832 
	C309.520203,220.553284 298.962738,213.354858 288.757690,205.271118 
z"/>
<path fill="#000000" opacity="1.000000" stroke="none" 
	d="
M160.310120,189.773834 
	C168.056183,206.562912 175.664703,223.000351 183.536591,240.006805 
	C178.299240,241.525925 173.706757,241.100754 169.157898,240.570465 
	C167.022736,240.321564 166.547684,238.198517 165.792160,236.562439 
	C161.533401,227.340149 157.314041,218.099655 153.042358,208.883377 
	C152.285965,207.251404 151.815964,205.416977 149.646973,203.754150 
	C148.845963,212.364090 148.087051,220.526184 147.326981,228.688141 
	C147.111267,231.004440 146.699432,233.321533 146.713120,235.636276 
	C146.745316,241.075180 143.214783,241.185410 139.280869,240.885483 
	C136.860870,240.700989 135.722061,239.704208 136.049179,237.032425 
	C137.826126,222.519501 139.358521,207.975388 141.268936,193.480743 
	C141.925934,188.495956 141.553986,184.130905 138.872482,179.656204 
	C134.117264,171.721024 128.742889,164.403534 121.611427,158.457443 
	C114.575233,152.590805 106.472527,149.581528 97.316429,149.329956 
	C95.919861,149.291580 94.302574,149.780014 92.832809,147.652039 
	C97.089577,144.773087 101.724854,144.846786 106.383896,145.089249 
	C129.688110,146.301880 144.496582,159.765839 155.184052,179.071198 
	C157.036148,182.416779 158.519104,185.966690 160.310120,189.773834 
z"/>
<path fill="#000000" opacity="1.000000" stroke="none" 
	d="
M270.315735,188.899323 
	C272.829773,205.068848 275.262238,220.809311 277.871857,236.520325 
	C278.341370,239.346985 277.545227,240.644165 274.773438,240.840210 
	C274.441528,240.863693 274.109222,240.906342 273.777466,240.902939 
	C261.728943,240.778824 263.234650,242.182297 261.643250,230.697708 
	C260.299683,221.001709 258.888428,211.315094 257.276550,200.006683 
	C255.506927,203.874985 254.297531,206.449326 253.145691,209.049133 
	C249.170578,218.021301 245.244537,227.015320 241.242142,235.975266 
	C238.786804,241.471878 237.142685,242.048141 230.337784,239.420120 
	C241.518967,214.379868 252.680267,189.384125 263.841583,164.388382 
	C264.489929,164.467651 265.138275,164.546906 265.786652,164.626175 
	C268.705811,172.244339 268.530853,180.575714 270.315735,188.899323 
z"/>
<path fill="#000000" opacity="1.000000" stroke="none" 
	d="
M216.987640,269.085144 
	C220.888062,260.449982 221.868317,259.875610 228.760971,262.059296 
	C229.375397,264.524963 227.751053,266.456879 226.877502,268.488556 
	C221.422974,281.174438 215.772797,293.776337 210.347824,306.474609 
	C209.049301,309.514099 208.319138,312.802002 207.407852,315.998505 
	C207.045959,317.267944 207.078415,318.818726 205.328674,318.961823 
	C203.654877,319.098785 203.154404,317.635345 202.598083,316.463806 
	C200.313965,311.653809 198.063950,306.827301 195.840637,301.988831 
	C189.805573,288.855042 183.790527,275.712067 177.774231,262.587341 
	C186.249146,258.437103 193.163239,260.687012 196.681595,268.357147 
	C199.664215,274.859344 202.693253,281.340302 205.729126,287.817841 
	C205.931183,288.248993 206.365265,288.571381 207.325592,289.669495 
	C211.291351,283.040131 213.731171,276.064362 216.987640,269.085144 
z"/>
<path fill="#000000" opacity="1.000000" stroke="none" 
	d="
M133.158310,263.524658 
	C136.042114,259.675140 139.785522,260.659912 142.856598,261.780273 
	C145.576828,262.772614 144.110260,265.891296 143.918518,268.061035 
	C142.836426,280.305878 141.497284,292.529358 140.535492,304.782867 
	C140.177689,309.341278 142.831390,312.248077 147.205978,313.513336 
	C148.576050,313.909607 150.282745,313.243011 151.294037,314.801300 
	C148.353546,316.848236 115.267250,317.150146 110.702431,315.172638 
	C110.664688,314.062744 111.473892,313.782410 112.304939,313.718597 
	C123.818222,312.834290 128.331329,307.533417 129.587784,295.134583 
	C130.642471,284.726807 131.873428,274.336914 133.158310,263.524658 
z"/>
<path fill="#000000" opacity="1.000000" stroke="none" 
	d="
M211.988159,253.763931 
	C210.395935,255.680679 209.464539,254.827591 209.215347,253.236923 
	C208.814438,250.677734 208.510818,248.037704 209.908875,245.766800 
	C212.827042,245.029709 213.098389,247.990631 214.846802,248.696671 
	C216.196259,248.046326 214.735321,245.921127 217.250198,245.454895 
	C218.970154,248.518234 218.658600,251.674850 217.645233,254.151855 
	C214.750992,256.435089 214.588226,251.020538 211.988159,253.763931 
z"/>
<path fill="#000000" opacity="1.000000" stroke="none" 
	d="
M352.621826,253.226685 
	C353.489716,255.447678 352.022888,255.614822 351.036621,255.002396 
	C349.301849,253.925156 347.845093,252.667847 346.522369,255.480881 
	C344.428772,252.774796 345.035095,250.414856 345.176025,248.167786 
	C345.308258,246.058655 346.383240,244.719040 348.724762,245.102249 
	C351.095367,245.490204 352.876556,246.496048 352.266510,249.363052 
	C352.001465,250.608841 351.077820,251.839920 352.621826,253.226685 
z"/>
<path fill="#000000" opacity="1.000000" stroke="none" 
	d="
M173.858612,245.085114 
	C177.525116,245.384613 180.059280,246.459305 178.318588,250.390228 
	C177.481689,252.280151 179.622513,252.954773 179.430161,254.603973 
	C177.147202,256.914917 174.653946,251.272247 172.013504,256.298523 
	C172.099869,251.395279 169.997864,247.962601 173.858612,245.085114 
z"/>
<path fill="#000000" opacity="1.000000" stroke="none" 
	d="
M294.511353,245.798523 
	C296.025513,247.844788 294.968628,250.089554 295.934021,252.107574 
	C296.484375,253.258072 295.263916,254.626785 293.851746,255.067276 
	C292.387512,255.524017 290.842651,255.628220 289.588226,254.534134 
	C288.583435,253.657776 288.179474,252.616699 289.673309,251.741837 
	C290.687042,251.148148 289.725433,250.752274 289.587402,250.224548 
	C288.443726,245.852036 289.347565,244.969009 294.511353,245.798523 
z"/>
<path fill="#000000" opacity="1.000000" stroke="none" 
	d="
M330.710724,245.116791 
	C332.961670,245.972275 334.103455,247.302261 334.249878,249.334320 
	C334.449677,252.107193 333.560913,254.349060 330.662842,255.114166 
	C328.390411,255.714066 326.189972,255.273361 325.170929,252.893036 
	C324.110016,250.414871 324.376465,247.963135 326.576782,246.081268 
	C327.627319,245.182800 328.927551,244.866760 330.710724,245.116791 
M328.384705,248.375610 
	C327.082977,249.916397 326.841156,251.423752 328.913879,252.402283 
	C329.910187,252.872620 331.020203,252.296143 331.304260,251.221451 
	C331.813782,249.293777 331.287720,247.900894 328.384705,248.375610 
z"/>
<path fill="#000000" opacity="1.000000" stroke="none" 
	d="
M140.824097,245.695023 
	C142.849716,248.475433 144.541748,244.396622 146.580917,245.975220 
	C145.207870,248.743896 142.744232,251.784958 147.309341,253.980042 
	C144.574905,256.873169 141.949783,251.314728 139.551300,256.395020 
	C139.088913,251.670578 137.132675,248.409271 140.824097,245.695023 
z"/>
<path fill="#000000" opacity="1.000000" stroke="none" 
	d="
M369.410583,253.029358 
	C370.586090,254.237732 370.229279,255.066895 368.950623,255.193283 
	C367.216187,255.364700 364.914459,256.040009 364.140503,253.888458 
	C363.250763,251.415131 362.909607,248.408218 364.327850,246.185883 
	C365.595551,244.199402 368.040833,244.586868 370.106964,245.860886 
	C368.102570,248.060760 369.252777,250.562515 369.410583,253.029358 
z"/>
<path fill="#000000" opacity="1.000000" stroke="none" 
	d="
M192.861816,246.187027 
	C198.436142,246.800232 197.053772,251.426819 198.339920,254.798096 
	C195.421143,253.411850 192.843964,253.037384 190.133575,255.536148 
	C189.097641,251.529999 191.510651,249.165863 192.861816,246.187027 
z"/>
<path fill="#000000" opacity="1.000000" stroke="none" 
	d="
M230.200928,254.987488 
	C228.784256,252.246384 229.555588,249.864960 233.150970,245.317490 
	C236.462326,247.472855 236.985672,250.922867 237.881332,254.750839 
	C235.195801,254.667923 232.653107,252.203293 230.200928,254.987488 
z"/>
<path fill="#000000" opacity="1.000000" stroke="none" 
	d="
M311.343994,251.261795 
	C311.144501,252.727280 311.587311,254.037704 309.840729,254.792343 
	C307.480194,252.453522 310.202148,247.941299 305.849548,246.387512 
	C308.651154,244.311813 310.954132,244.747696 313.540619,245.574066 
	C313.451263,247.702545 310.749207,248.663330 311.343994,251.261795 
z"/>
<path fill="#000000" opacity="1.000000" stroke="none" 
	d="
M158.957855,245.855499 
	C160.721176,249.954208 160.703033,250.814362 158.941010,255.042847 
	C157.140549,251.731247 157.164108,248.824982 158.957855,245.855499 
z"/>
</svg>